<svg width="20" height="13.333" viewBox="0 0 20 13.333" xmlns="http://www.w3.org/2000/svg">
    <g fill="none" fill-rule="evenodd">
        <path d="M8 10.667h4v1.5H8z"/>
        <path d="M16.667 11.667c.916 0 1.658-.75 1.658-1.667l.008-8.333c0-.925-.75-1.667-1.666-1.667H3.333a1.66 1.66 0 0 0-1.666 1.667V10c0 .917.741 1.667 1.666 1.667H0v1.666h20v-1.666h-3.333zM3.333 10V1.667h13.334v8.341L3.333 10zm4.248-5.04c0-.855.696-1.552 1.553-1.552.856 0 1.553.697 1.553 1.553S9.99 6.514 9.134 6.514A1.555 1.555 0 0 1 7.58 4.961zm5.86 3.53-2.069-2.067c.276-.421.44-.923.44-1.462a2.68 2.68 0 0 0-2.678-2.678 2.68 2.68 0 0 0-2.678 2.678 2.682 2.682 0 0 0 2.678 2.678c.53 0 1.02-.16 1.437-.426l2.074 2.074.796-.796z" fill="#000" fill-rule="nonzero"/>
    </g>
</svg>
