<svg width="20" height="19.879" viewBox="0 0 20 19.879" xmlns="http://www.w3.org/2000/svg">
    <path d="M6.29 19.88c7.547 0 11.675-7.65 11.675-14.282 0-.218 0-.434-.012-.65A9.598 9.598 0 0 0 20 2.35a7.06 7.06 0 0 1-2.356.791c.856-.628 1.497-1.615 1.803-2.777a7.393 7.393 0 0 1-2.606 1.22C15.57-.073 13.549-.478 11.91.594 10.276 1.667 9.432 3.948 9.85 6.16 6.55 5.958 3.476 4.05 1.393.916.303 3.208.857 6.143 2.66 7.617a3.532 3.532 0 0 1-1.849-.63v.065c0 2.386 1.373 4.443 3.284 4.92-.597.201-1.24.23-1.853.085.537 2.046 2.077 3.448 3.833 3.489-1.453 1.393-3.248 2.148-5.096 2.143-.327 0-.654-.023-.979-.07 1.876 1.475 4.06 2.257 6.29 2.254" fill="#1DA1F2" fill-rule="nonzero"/>
</svg>
