<svg width="16.667" height="16.667" viewBox="0 0 16.667 16.667" xmlns="http://www.w3.org/2000/svg">
    <path d="M8.325 0C3.725 0 0 3.733 0 8.333s3.725 8.334 8.325 8.334c4.608 0 8.342-3.734 8.342-8.334S12.933 0 8.325 0zM14.1 5h-2.458a13.04 13.04 0 0 0-1.15-2.967A6.691 6.691 0 0 1 14.1 5zM8.333 1.7c.692 1 1.234 2.108 1.592 3.3H6.742c.358-1.192.9-2.3 1.591-3.3zM1.883 10a6.868 6.868 0 0 1-.216-1.667c0-.575.083-1.133.216-1.666H4.7c-.067.55-.117 1.1-.117 1.666 0 .567.05 1.117.117 1.667H1.883zm.684 1.667h2.458a13.04 13.04 0 0 0 1.15 2.966 6.656 6.656 0 0 1-3.608-2.966zM5.025 5H2.567a6.656 6.656 0 0 1 3.608-2.967A13.04 13.04 0 0 0 5.025 5zm3.308 9.967c-.691-1-1.233-2.109-1.591-3.3h3.183c-.358 1.191-.9 2.3-1.592 3.3zM10.283 10h-3.9a12.26 12.26 0 0 1-.133-1.667c0-.566.058-1.125.133-1.666h3.9c.075.541.134 1.1.134 1.666 0 .567-.059 1.117-.134 1.667zm.209 4.633c.5-.925.883-1.925 1.15-2.966H14.1a6.691 6.691 0 0 1-3.608 2.966zM11.967 10c.066-.55.116-1.1.116-1.667 0-.566-.05-1.116-.116-1.666h2.816c.134.533.217 1.091.217 1.666s-.083 1.134-.217 1.667h-2.816z" fill="#000" fill-rule="nonzero"/>
</svg>
